<?xml version="1.0" encoding="utf-8"?>
<!-- Generator: Adobe Illustrator 18.0.0, SVG Export Plug-In . SVG Version: 6.00 Build 0)  -->
<!DOCTYPE svg PUBLIC "-//W3C//DTD SVG 1.1//EN" "http://www.w3.org/Graphics/SVG/1.1/DTD/svg11.dtd">
<svg version="1.1" id="Calque_1" xmlns="http://www.w3.org/2000/svg" xmlns:xlink="http://www.w3.org/1999/xlink" x="0px" y="0px"
	 viewBox="0 0 566.9 492.9" enable-background="new 0 0 566.9 492.9" xml:space="preserve">
<g id="Calque_5" display="none">
	<g id="imageandtext" display="inline">
		<rect y="100.1" fill="#9D9D9C" width="567.3" height="170.1"/>
		<rect y="335.9" fill="#B2B2B2" width="567.3" height="15"/>
		<rect y="364.9" fill="#C6C6C6" width="567.3" height="15"/>
		<rect y="306.5" fill="#C6C6C6" width="567.3" height="15"/>
		<rect y="394.2" fill="#B2B2B2" width="567.3" height="15"/>
		<rect y="452.6" fill="#B2B2B2" width="567.3" height="15"/>
		<rect y="423.6" fill="#C6C6C6" width="567.3" height="15"/>
	</g>
</g>
<g id="Calque_1_1_">
	<rect x="439.9" y="100.3" fill="#9D9D9C" width="127" height="94.6"/>
	<rect x="439.9" y="217.9" fill="#9D9D9C" width="127" height="94.6"/>
	<rect y="99.9" fill="#AFAFAF" width="407.5" height="46.8"/>
	<rect y="194.1" fill="#B2B2B2" width="407.5" height="15"/>
	<rect y="168.3" fill="#C6C6C6" width="407.5" height="15"/>
	<rect y="246.1" fill="#B2B2B2" width="407.5" height="15"/>
	<rect y="220.1" fill="#C6C6C6" width="407.5" height="15"/>
	<rect y="298.1" fill="#B2B2B2" width="407.5" height="15"/>
	<rect y="272.1" fill="#C6C6C6" width="407.5" height="15"/>
</g>
<g id="Calque_2" display="none">
	<rect x="6.7" y="132.9" display="inline" fill="none" stroke="#878787" stroke-miterlimit="10" width="166.3" height="149.1"/>
	<rect x="394" y="132.9" display="inline" fill="none" stroke="#878787" stroke-miterlimit="10" width="166.3" height="149.1"/>
	<rect x="200.4" y="132.9" display="inline" fill="#9D9D9C" width="166.3" height="149.1"/>
</g>
<g id="Calque_3" display="none">
	<g id="imagelefttext" display="inline">
		<rect y="100.6" fill="#9D9D9C" width="138.1" height="131.1"/>
		<rect x="159.4" y="129.6" fill="#B2B2B2" width="407.5" height="15"/>
		<rect x="159.4" y="158.6" fill="#C6C6C6" width="407.5" height="15"/>
		<rect x="159.4" y="100.3" fill="#C6C6C6" width="407.5" height="15"/>
		<rect x="159.4" y="188" fill="#B2B2B2" width="407.5" height="15"/>
		<rect x="159.4" y="246.3" fill="#B2B2B2" width="407.5" height="15"/>
		<rect x="159.4" y="275.7" fill="#C6C6C6" width="407.5" height="15"/>
		<rect x="159.4" y="217.3" fill="#C6C6C6" width="407.5" height="15"/>
		<rect x="159.4" y="305" fill="#B2B2B2" width="407.5" height="15"/>
	</g>
</g>
<g id="Calque_4" display="none">
	<g id="imagerighttext_1_" display="inline">
		<rect x="428.9" y="99.9" fill="#9D9D9C" width="138.1" height="131.1"/>
		<rect y="128.9" fill="#B2B2B2" width="407.5" height="15"/>
		<rect y="158.3" fill="#C6C6C6" width="407.5" height="15"/>
		<rect y="99.9" fill="#C6C6C6" width="407.5" height="15"/>
		<rect y="187.6" fill="#B2B2B2" width="407.5" height="15"/>
		<rect y="246" fill="#B2B2B2" width="407.5" height="15"/>
		<rect y="275" fill="#C6C6C6" width="407.5" height="15"/>
		<rect y="216.6" fill="#C6C6C6" width="407.5" height="15"/>
		<rect y="304.3" fill="#B2B2B2" width="407.5" height="15"/>
	</g>
</g>
<g id="Calque_6">
</g>
</svg>
