<?xml version="1.0" encoding="utf-8"?>
<!-- Generator: Adobe Illustrator 19.2.1, SVG Export Plug-In . SVG Version: 6.00 Build 0)  -->
<svg version="1.1" id="Calque_1" xmlns="http://www.w3.org/2000/svg" xmlns:xlink="http://www.w3.org/1999/xlink" x="0px" y="0px"
	 viewBox="0 0 566.9 492.9" style="enable-background:new 0 0 566.9 492.9;" xml:space="preserve">
<style type="text/css">
	.st0{display:none;}
	.st1{display:inline;}
	.st2{fill:#9D9D9C;}
	.st3{fill:#B2B2B2;}
	.st4{fill:#C6C6C6;}
	.st5{display:inline;fill:#9D9D9C;}
	.st6{display:inline;fill:#AFAFAF;}
	.st7{display:inline;fill:#B2B2B2;}
	.st8{display:inline;fill:#C6C6C6;}
	.st9{display:inline;fill:none;stroke:#878787;stroke-miterlimit:10;}
</style>
<g id="Calque_5" class="st0">
	<g id="imageandtext" class="st1">
		<rect y="100.1" class="st2" width="567.3" height="170.1"/>
		<rect y="335.9" class="st3" width="567.3" height="15"/>
		<rect y="364.9" class="st4" width="567.3" height="15"/>
		<rect y="306.5" class="st4" width="567.3" height="15"/>
		<rect y="394.2" class="st3" width="567.3" height="15"/>
		<rect y="452.6" class="st3" width="567.3" height="15"/>
		<rect y="423.6" class="st4" width="567.3" height="15"/>
	</g>
</g>
<g id="Calque_1_1_" class="st0">
	<rect x="439.9" y="100.3" class="st5" width="127" height="94.6"/>
	<rect x="439.9" y="217.9" class="st5" width="127" height="94.6"/>
	<rect y="99.9" class="st6" width="407.5" height="46.8"/>
	<rect y="194.1" class="st7" width="407.5" height="15"/>
	<rect y="168.3" class="st8" width="407.5" height="15"/>
	<rect y="246.1" class="st7" width="407.5" height="15"/>
	<rect y="220.1" class="st8" width="407.5" height="15"/>
	<rect y="298.1" class="st7" width="407.5" height="15"/>
	<rect y="272.1" class="st8" width="407.5" height="15"/>
</g>
<g id="Calque_2" class="st0">
	<rect x="6.7" y="132.9" class="st9" width="166.3" height="149.1"/>
	<rect x="394" y="132.9" class="st9" width="166.3" height="149.1"/>
	<rect x="200.4" y="132.9" class="st5" width="166.3" height="149.1"/>
</g>
<g id="Calque_4" class="st0">
	<g id="imagerighttext_1_" class="st1">
		<rect x="428.9" y="99.9" class="st2" width="138.1" height="131.1"/>
		<rect y="128.9" class="st3" width="407.5" height="15"/>
		<rect y="158.3" class="st4" width="407.5" height="15"/>
		<rect y="99.9" class="st4" width="407.5" height="15"/>
		<rect y="187.6" class="st3" width="407.5" height="15"/>
		<rect y="246" class="st3" width="407.5" height="15"/>
		<rect y="275" class="st4" width="407.5" height="15"/>
		<rect y="216.6" class="st4" width="407.5" height="15"/>
		<rect y="304.3" class="st3" width="407.5" height="15"/>
	</g>
</g>
<g id="Calque_6">
</g>
<path class="st2" d="M354.6,325.77h-36.78v36.77h36.78V325.77z M302.77,227.36h-36.76v36.76h36.76V227.36z M354.6,276.57h-36.78
	v36.77h36.78V276.57z M406.38,227.36h-36.76v36.76h36.76V227.36z M302.77,276.57h-36.76v36.77h36.76V276.57z M354.6,227.36h-36.78
	v36.76h36.78V227.36z M406.38,276.57h-36.76v36.77h36.76V276.57z M199.18,325.77h-36.76v36.77h36.76V325.77z M199.18,276.57h-36.76
	v36.77h36.76V276.57z M396.92,97.74v16.14c6.34,5.61,10.36,13.79,10.36,22.92c0,16.91-13.71,30.63-30.63,30.63
	c-16.92,0-30.63-13.72-30.63-30.63c0-9.14,4.02-17.31,10.36-22.92V97.74h-143.1v16.14c6.34,5.61,10.36,13.79,10.36,22.92
	c0,16.91-13.71,30.63-30.63,30.63c-16.92,0-30.63-13.72-30.63-30.63c0-9.14,4.02-17.31,10.36-22.92V97.74H104.5v325.91H462.4V97.74
	H396.92z M429.71,390.96H137.19V187.36h292.52V390.96L429.71,390.96z M251,227.36h-36.78v36.76H251L251,227.36L251,227.36z
	 M251,325.77h-36.78v36.77H251L251,325.77L251,325.77z M302.77,325.77h-36.76v36.77h36.76V325.77z M251,276.57h-36.78v36.77H251
	L251,276.57L251,276.57z M193.02,154.65c8.42,0,15.25-6.82,15.25-15.24V84.49c0-8.42-6.83-15.24-15.25-15.24
	c-8.42,0-15.25,6.83-15.25,15.24v54.92C177.77,147.83,184.6,154.65,193.02,154.65 M376.65,154.65c8.42,0,15.25-6.82,15.25-15.24
	V84.49c0-8.42-6.83-15.24-15.25-15.24c-8.42,0-15.25,6.83-15.25,15.24v54.92C361.4,147.83,368.23,154.65,376.65,154.65"/>
</svg>
