<?xml version="1.0" encoding="utf-8"?>
<!-- Generator: Adobe Illustrator 18.1.1, SVG Export Plug-In . SVG Version: 6.00 Build 0)  -->
<svg version="1.1" id="Calque_1" xmlns="http://www.w3.org/2000/svg" xmlns:xlink="http://www.w3.org/1999/xlink" x="0px" y="0px"
	 viewBox="0 0 566.9 463.5" enable-background="new 0 0 566.9 463.5" xml:space="preserve">
<g id="Calque_5" display="none">
	<g id="imageandtext" display="inline">
		<rect x="120.5" y="57.6" fill="#9D9D9C" width="326.2" height="97.8"/>
		<rect x="120.5" y="193.2" fill="#B2B2B2" width="326.2" height="8.6"/>
		<rect x="120.5" y="209.8" fill="#C6C6C6" width="326.2" height="8.6"/>
		<rect x="120.5" y="176.3" fill="#C6C6C6" width="326.2" height="8.6"/>
		<rect x="120.5" y="226.7" fill="#B2B2B2" width="326.2" height="8.6"/>
		<rect x="120.5" y="260.3" fill="#B2B2B2" width="326.2" height="8.6"/>
		<rect x="120.5" y="243.6" fill="#C6C6C6" width="326.2" height="8.6"/>
	</g>
</g>
<rect x="414.1" y="57.8" fill="#9D9D9C" width="104.4" height="71.1"/>
<rect x="52.5" y="57.5" fill="#AFAFAF" width="335" height="35.2"/>
<rect x="52.5" y="128.3" fill="#B2B2B2" width="335" height="11.3"/>
<rect x="52.5" y="108.9" fill="#C6C6C6" width="335" height="11.3"/>
<rect x="52.5" y="147.8" fill="#C6C6C6" width="335" height="11.3"/>
<rect x="414.1" y="202.9" fill="#9D9D9C" width="104.4" height="71.1"/>
<rect x="52.5" y="202.6" fill="#AFAFAF" width="335" height="35.2"/>
<rect x="52.5" y="273.4" fill="#B2B2B2" width="335" height="11.3"/>
<rect x="52.5" y="254" fill="#C6C6C6" width="335" height="11.3"/>
<rect x="52.5" y="292.9" fill="#C6C6C6" width="335" height="11.3"/>
<g id="Calque_2" display="none">
	<rect x="124.3" y="76.4" display="inline" fill="none" stroke="#878787" stroke-miterlimit="10" width="95.6" height="85.7"/>
	<rect x="347" y="76.4" display="inline" fill="none" stroke="#878787" stroke-miterlimit="10" width="95.6" height="85.7"/>
	<rect x="235.7" y="76.4" display="inline" fill="#9D9D9C" width="95.6" height="85.7"/>
</g>
<g id="Calque_3" display="none">
	<g id="imagelefttext" display="inline">
		<rect x="120.5" y="57.9" fill="#9D9D9C" width="79.4" height="75.4"/>
		<rect x="212.1" y="74.5" fill="#B2B2B2" width="234.3" height="8.6"/>
		<rect x="212.1" y="91.2" fill="#C6C6C6" width="234.3" height="8.6"/>
		<rect x="212.1" y="57.7" fill="#C6C6C6" width="234.3" height="8.6"/>
		<rect x="212.1" y="108.1" fill="#B2B2B2" width="234.3" height="8.6"/>
		<rect x="212.1" y="141.6" fill="#B2B2B2" width="234.3" height="8.6"/>
		<rect x="212.1" y="158.6" fill="#C6C6C6" width="234.3" height="8.6"/>
		<rect x="212.1" y="125" fill="#C6C6C6" width="234.3" height="8.6"/>
		<rect x="212.1" y="175.4" fill="#B2B2B2" width="234.3" height="8.6"/>
	</g>
</g>
<g id="Calque_4" display="none">
	<g id="imagerighttext_1_" display="inline">
		<rect x="367.1" y="57.5" fill="#9D9D9C" width="79.4" height="75.4"/>
		<rect x="120.5" y="74.1" fill="#B2B2B2" width="234.3" height="8.6"/>
		<rect x="120.5" y="91" fill="#C6C6C6" width="234.3" height="8.6"/>
		<rect x="120.5" y="57.5" fill="#C6C6C6" width="234.3" height="8.6"/>
		<rect x="120.5" y="107.9" fill="#B2B2B2" width="234.3" height="8.6"/>
		<rect x="120.5" y="141.5" fill="#B2B2B2" width="234.3" height="8.6"/>
		<rect x="120.5" y="158.1" fill="#C6C6C6" width="234.3" height="8.6"/>
		<rect x="120.5" y="124.6" fill="#C6C6C6" width="234.3" height="8.6"/>
		<rect x="120.5" y="175" fill="#B2B2B2" width="234.3" height="8.6"/>
	</g>
</g>
<g id="Calque_6">
</g>
</svg>
