<?xml version="1.0" encoding="utf-8"?>
<!-- Generator: Adobe Illustrator 18.0.0, SVG Export Plug-In . SVG Version: 6.00 Build 0)  -->
<!DOCTYPE svg PUBLIC "-//W3C//DTD SVG 1.1//EN" "http://www.w3.org/Graphics/SVG/1.1/DTD/svg11.dtd">
<svg version="1.1" id="Calque_1" xmlns="http://www.w3.org/2000/svg" xmlns:xlink="http://www.w3.org/1999/xlink" x="0px" y="0px"
	 viewBox="0 36.9 566.9 437" enable-background="new 0 36.9 566.9 437" xml:space="preserve">
<rect y="129.1" fill="#9D9D9C" width="567.3" height="123.1"/>
<rect y="300.9" fill="#B2B2B2" width="567.3" height="15"/>
<rect y="329.9" fill="#C6C6C6" width="567.3" height="15"/>
<rect y="271.5" fill="#C6C6C6" width="567.3" height="15"/>
<rect y="359.2" fill="#B2B2B2" width="567.3" height="15"/>
<g id="Calque_1_1_" display="none">
	<rect x="439.9" y="137.3" display="inline" fill="#9D9D9C" width="127" height="94.6"/>
	<rect x="439.9" y="254.9" display="inline" fill="#9D9D9C" width="127" height="94.6"/>
	<rect y="136.9" display="inline" fill="#AFAFAF" width="407.5" height="46.8"/>
	<rect y="231.1" display="inline" fill="#B2B2B2" width="407.5" height="15"/>
	<rect y="205.3" display="inline" fill="#C6C6C6" width="407.5" height="15"/>
	<rect y="283.1" display="inline" fill="#B2B2B2" width="407.5" height="15"/>
	<rect y="257.1" display="inline" fill="#C6C6C6" width="407.5" height="15"/>
	<rect y="335.1" display="inline" fill="#B2B2B2" width="407.5" height="15"/>
	<rect y="309.1" display="inline" fill="#C6C6C6" width="407.5" height="15"/>
</g>
<g id="Calque_2" display="none">
	<rect x="6.7" y="169.9" display="inline" fill="none" stroke="#878787" stroke-miterlimit="10" width="166.3" height="149.1"/>
	<rect x="394" y="169.9" display="inline" fill="none" stroke="#878787" stroke-miterlimit="10" width="166.3" height="149.1"/>
	<rect x="200.4" y="169.9" display="inline" fill="#9D9D9C" width="166.3" height="149.1"/>
</g>
<g id="Calque_3" display="none">
	<g id="imagelefttext" display="inline">
		<rect y="137.6" fill="#9D9D9C" width="138.1" height="131.1"/>
		<rect x="159.4" y="166.6" fill="#B2B2B2" width="407.5" height="15"/>
		<rect x="159.4" y="195.6" fill="#C6C6C6" width="407.5" height="15"/>
		<rect x="159.4" y="137.3" fill="#C6C6C6" width="407.5" height="15"/>
		<rect x="159.4" y="225" fill="#B2B2B2" width="407.5" height="15"/>
		<rect x="159.4" y="283.3" fill="#B2B2B2" width="407.5" height="15"/>
		<rect x="159.4" y="312.7" fill="#C6C6C6" width="407.5" height="15"/>
		<rect x="159.4" y="254.3" fill="#C6C6C6" width="407.5" height="15"/>
		<rect x="159.4" y="342" fill="#B2B2B2" width="407.5" height="15"/>
	</g>
</g>
<g id="Calque_4" display="none">
	<g id="imagerighttext_1_" display="inline">
		<rect x="428.9" y="136.9" fill="#9D9D9C" width="138.1" height="131.1"/>
		<rect y="165.9" fill="#B2B2B2" width="407.5" height="15"/>
		<rect y="195.3" fill="#C6C6C6" width="407.5" height="15"/>
		<rect y="136.9" fill="#C6C6C6" width="407.5" height="15"/>
		<rect y="224.6" fill="#B2B2B2" width="407.5" height="15"/>
		<rect y="283" fill="#B2B2B2" width="407.5" height="15"/>
		<rect y="312" fill="#C6C6C6" width="407.5" height="15"/>
		<rect y="253.6" fill="#C6C6C6" width="407.5" height="15"/>
		<rect y="341.3" fill="#B2B2B2" width="407.5" height="15"/>
	</g>
</g>
<g id="Calque_6">
</g>
</svg>
