<?xml version="1.0" encoding="utf-8"?>
<!-- Generator: Adobe Illustrator 18.0.0, SVG Export Plug-In . SVG Version: 6.00 Build 0)  -->
<!DOCTYPE svg PUBLIC "-//W3C//DTD SVG 1.1//EN" "http://www.w3.org/Graphics/SVG/1.1/DTD/svg11.dtd">
<svg version="1.1" xmlns="http://www.w3.org/2000/svg" xmlns:xlink="http://www.w3.org/1999/xlink" x="0px" y="0px"
	 viewBox="0 0 170 142" enable-background="new 0 0 170 142" xml:space="preserve">
<g id="imageandtext" display="none">
	<g display="inline">
		<rect x="0" y="0" fill="#9D9D9C" width="170.1" height="65.2"/>
		<rect x="0" y="84.9" fill="#B2B2B2" width="170.1" height="4.5"/>
		<rect x="0" y="93.6" fill="#C6C6C6" width="170.1" height="4.5"/>
		<rect x="0" y="76.1" fill="#C6C6C6" width="170.1" height="4.5"/>
		<rect x="0" y="102.4" fill="#B2B2B2" width="170.1" height="4.5"/>
		<rect x="0" y="119.9" fill="#B2B2B2" width="170.1" height="4.5"/>
		<rect x="0" y="128.7" fill="#C6C6C6" width="170.1" height="4.5"/>
		<rect x="0" y="111.2" fill="#C6C6C6" width="170.1" height="4.5"/>
		<rect x="0" y="137.5" fill="#B2B2B2" width="170.1" height="4.5"/>
	</g>
</g>
<g id="imagerighttext" display="none">
	<rect x="128.6" y="45.6" display="inline" fill="#9D9D9C" width="41.4" height="39.3"/>
	<rect y="54.3" display="inline" fill="#B2B2B2" width="122.2" height="4.5"/>
	<rect y="63.1" display="inline" fill="#C6C6C6" width="122.2" height="4.5"/>
	<rect y="45.6" display="inline" fill="#C6C6C6" width="122.2" height="4.5"/>
	<rect y="71.9" display="inline" fill="#B2B2B2" width="122.2" height="4.5"/>
	<rect y="89.4" display="inline" fill="#B2B2B2" width="122.2" height="4.5"/>
	<rect y="98.1" display="inline" fill="#C6C6C6" width="122.2" height="4.5"/>
	<rect y="80.6" display="inline" fill="#C6C6C6" width="122.2" height="4.5"/>
	<rect y="106.9" display="inline" fill="#B2B2B2" width="122.2" height="4.5"/>
</g>
<g id="titrerightimage">
	<rect x="128.6" y="56.5" fill="#9D9D9C" width="41.4" height="39.3"/>
	<rect y="65.2" fill="#B2B2B2" width="122.2" height="4.5"/>
	<rect y="56.5" fill="#C6C6C6" width="122.2" height="4.5"/>
</g>
<g id="imagelefttext" display="none">
	<rect x="0" y="45.2" display="inline" fill="#9D9D9C" width="41.4" height="39.3"/>
	<rect x="47.8" y="53.9" display="inline" fill="#B2B2B2" width="122.2" height="4.5"/>
	<rect x="47.8" y="62.6" display="inline" fill="#C6C6C6" width="122.2" height="4.5"/>
	<rect x="47.8" y="45.1" display="inline" fill="#C6C6C6" width="122.2" height="4.5"/>
	<rect x="47.8" y="71.4" display="inline" fill="#B2B2B2" width="122.2" height="4.5"/>
	<rect x="47.8" y="88.9" display="inline" fill="#B2B2B2" width="122.2" height="4.5"/>
	<rect x="47.8" y="97.7" display="inline" fill="#C6C6C6" width="122.2" height="4.5"/>
	<rect x="47.8" y="80.2" display="inline" fill="#C6C6C6" width="122.2" height="4.5"/>
	<rect x="47.8" y="106.5" display="inline" fill="#B2B2B2" width="122.2" height="4.5"/>
</g>
<g id="titreimageleft" display="none">
	<rect x="0" y="76.2" display="inline" fill="#9D9D9C" width="41.4" height="39.3"/>
	<rect x="47.8" y="84.9" display="inline" fill="#B2B2B2" width="122.2" height="4.5"/>
	<rect x="47.8" y="76.1" display="inline" fill="#C6C6C6" width="122.2" height="4.5"/>
</g>
<g id="titre" display="none">
	<rect x="17.1" y="78" display="inline" fill="#B2B2B2" width="136.1" height="3.6"/>
	<rect x="0.2" y="69.8" display="inline" fill="#C6C6C6" width="170" height="4.5"/>
</g>
<g id="imagePosition" display="none">
	
		<rect x="0" y="56.4" display="inline" fill="none" stroke="#B2B2B2" stroke-width="0.75" stroke-miterlimit="10" width="50.6" height="39.3"/>
	
		<rect x="119.4" y="56.4" display="inline" fill="none" stroke="#B2B2B2" stroke-width="0.75" stroke-miterlimit="10" width="50.6" height="39.3"/>
	<rect x="59.7" y="56.4" display="inline" fill="#9D9D9C" width="50.6" height="39.3"/>
</g>
</svg>
