<?xml version="1.0" encoding="utf-8"?>
<!-- Generator: Adobe Illustrator 19.2.1, SVG Export Plug-In . SVG Version: 6.00 Build 0)  -->
<svg version="1.1" id="Calque_1" xmlns="http://www.w3.org/2000/svg" xmlns:xlink="http://www.w3.org/1999/xlink" x="0px" y="0px"
	 viewBox="0 0 566.9 492.9" style="enable-background:new 0 0 566.9 492.9;" xml:space="preserve">
<style type="text/css">
	.st0{display:none;}
	.st1{display:inline;}
	.st2{fill:#9D9D9C;}
	.st3{fill:#B2B2B2;}
	.st4{fill:#C6C6C6;}
	.st5{display:inline;fill:#9D9D9C;}
	.st6{display:inline;fill:#AFAFAF;}
	.st7{display:inline;fill:#B2B2B2;}
	.st8{display:inline;fill:#C6C6C6;}
	.st9{display:inline;fill:none;stroke:#878787;stroke-miterlimit:10;}
</style>
<g id="Calque_5" class="st0">
	<g id="imageandtext" class="st1">
		<rect y="100.1" class="st2" width="567.3" height="170.1"/>
		<rect y="335.9" class="st3" width="567.3" height="15"/>
		<rect y="364.9" class="st4" width="567.3" height="15"/>
		<rect y="306.5" class="st4" width="567.3" height="15"/>
		<rect y="394.2" class="st3" width="567.3" height="15"/>
		<rect y="452.6" class="st3" width="567.3" height="15"/>
		<rect y="423.6" class="st4" width="567.3" height="15"/>
	</g>
</g>
<g id="Calque_1_1_" class="st0">
	<rect x="439.9" y="100.3" class="st5" width="127" height="94.6"/>
	<rect x="439.9" y="217.9" class="st5" width="127" height="94.6"/>
	<rect y="99.9" class="st6" width="407.5" height="46.8"/>
	<rect y="194.1" class="st7" width="407.5" height="15"/>
	<rect y="168.3" class="st8" width="407.5" height="15"/>
	<rect y="246.1" class="st7" width="407.5" height="15"/>
	<rect y="220.1" class="st8" width="407.5" height="15"/>
	<rect y="298.1" class="st7" width="407.5" height="15"/>
	<rect y="272.1" class="st8" width="407.5" height="15"/>
</g>
<g id="Calque_2" class="st0">
	<rect x="6.7" y="132.9" class="st9" width="166.3" height="149.1"/>
	<rect x="394" y="132.9" class="st9" width="166.3" height="149.1"/>
	<rect x="200.4" y="132.9" class="st5" width="166.3" height="149.1"/>
</g>
<g id="Calque_4" class="st0">
	<g id="imagerighttext_1_" class="st1">
		<rect x="428.9" y="99.9" class="st2" width="138.1" height="131.1"/>
		<rect y="128.9" class="st3" width="407.5" height="15"/>
		<rect y="158.3" class="st4" width="407.5" height="15"/>
		<rect y="99.9" class="st4" width="407.5" height="15"/>
		<rect y="187.6" class="st3" width="407.5" height="15"/>
		<rect y="246" class="st3" width="407.5" height="15"/>
		<rect y="275" class="st4" width="407.5" height="15"/>
		<rect y="216.6" class="st4" width="407.5" height="15"/>
		<rect y="304.3" class="st3" width="407.5" height="15"/>
	</g>
</g>
<g id="Calque_6">
</g>
<path class="st2" d="M176,63.23c-11.5,0.06-22.06,2.89-30.58,8.22c-4.27,2.7-8.06,6.09-10.92,10.36c-2.86,4.24-4.73,9.5-4.72,15.07
	v283.96c-0.01,5.57,1.85,10.84,4.72,15.07c4.32,6.39,10.59,10.84,17.7,13.9c7,2.98,14.96,4.61,23.43,4.68l218.3,16.97v-41.24
	l43.17-2.01V55.95L176,63.23z M305.15,277.84l-90.21-7.01l2.06-26.51l90.21,7.02L305.15,277.84z M345.3,214.49l-156.31-12.52
	l2.12-26.5l156.31,12.52L345.3,214.49z M413.51,365.69l-19.57,0.91V123.84l-217.26-16.9h-0.5c-7.54,0.03-14.2-2.03-18.16-4.58
	c-1.99-1.25-3.28-2.57-3.91-3.53c-0.64-0.99-0.71-1.48-0.72-1.95c0.02-0.47,0.09-0.95,0.72-1.94c0.92-1.45,3.44-3.68,7.36-5.33
	c3.9-1.67,9.06-2.79,14.71-2.78h0.11l237.21-6.62V365.69z"/>
</svg>
