<?xml version="1.0" encoding="utf-8"?>
<!-- Generator: Adobe Illustrator 18.0.0, SVG Export Plug-In . SVG Version: 6.00 Build 0)  -->
<!DOCTYPE svg PUBLIC "-//W3C//DTD SVG 1.1//EN" "http://www.w3.org/Graphics/SVG/1.1/DTD/svg11.dtd">
<svg version="1.1" id="Calque_1" xmlns="http://www.w3.org/2000/svg" xmlns:xlink="http://www.w3.org/1999/xlink" x="0px" y="0px"
	 viewBox="0 0 566.9 566.9" enable-background="new 0 0 566.9 566.9" xml:space="preserve">
<rect y="236.9" fill="#B2B2B2" width="567.3" height="15"/>
<rect y="265.9" fill="#C6C6C6" width="567.3" height="15"/>
<rect y="207.5" fill="#C6C6C6" width="567.3" height="15"/>
<rect y="295.2" fill="#B2B2B2" width="567.3" height="15"/>
<rect y="121.9" fill="#B2B2B2" width="567.3" height="15"/>
<rect y="150.9" fill="#C6C6C6" width="567.3" height="15"/>
<rect y="92.5" fill="#C6C6C6" width="567.3" height="15"/>
<rect y="180.2" fill="#B2B2B2" width="567.3" height="15"/>
<g id="Calque_1_1_" display="none">
	<rect x="439.9" y="202.3" display="inline" fill="#9D9D9C" width="127" height="94.6"/>
	<rect x="439.9" y="319.9" display="inline" fill="#9D9D9C" width="127" height="94.6"/>
	<rect y="201.9" display="inline" fill="#AFAFAF" width="407.5" height="46.8"/>
	<rect y="296.1" display="inline" fill="#B2B2B2" width="407.5" height="15"/>
	<rect y="270.3" display="inline" fill="#C6C6C6" width="407.5" height="15"/>
	<rect y="348.1" display="inline" fill="#B2B2B2" width="407.5" height="15"/>
	<rect y="322.1" display="inline" fill="#C6C6C6" width="407.5" height="15"/>
	<rect y="400.1" display="inline" fill="#B2B2B2" width="407.5" height="15"/>
	<rect y="374.1" display="inline" fill="#C6C6C6" width="407.5" height="15"/>
</g>
<g id="Calque_2" display="none">
	<rect x="6.7" y="234.9" display="inline" fill="none" stroke="#878787" stroke-miterlimit="10" width="166.3" height="149.1"/>
	<rect x="394" y="234.9" display="inline" fill="none" stroke="#878787" stroke-miterlimit="10" width="166.3" height="149.1"/>
	<rect x="200.4" y="234.9" display="inline" fill="#9D9D9C" width="166.3" height="149.1"/>
</g>
<g id="Calque_3" display="none">
	<g id="imagelefttext" display="inline">
		<rect y="202.6" fill="#9D9D9C" width="138.1" height="131.1"/>
		<rect x="159.4" y="231.6" fill="#B2B2B2" width="407.5" height="15"/>
		<rect x="159.4" y="260.6" fill="#C6C6C6" width="407.5" height="15"/>
		<rect x="159.4" y="202.3" fill="#C6C6C6" width="407.5" height="15"/>
		<rect x="159.4" y="290" fill="#B2B2B2" width="407.5" height="15"/>
		<rect x="159.4" y="348.3" fill="#B2B2B2" width="407.5" height="15"/>
		<rect x="159.4" y="377.7" fill="#C6C6C6" width="407.5" height="15"/>
		<rect x="159.4" y="319.3" fill="#C6C6C6" width="407.5" height="15"/>
		<rect x="159.4" y="407" fill="#B2B2B2" width="407.5" height="15"/>
	</g>
</g>
<g id="Calque_4" display="none">
	<g id="imagerighttext_1_" display="inline">
		<rect x="428.9" y="201.9" fill="#9D9D9C" width="138.1" height="131.1"/>
		<rect y="230.9" fill="#B2B2B2" width="407.5" height="15"/>
		<rect y="260.3" fill="#C6C6C6" width="407.5" height="15"/>
		<rect y="201.9" fill="#C6C6C6" width="407.5" height="15"/>
		<rect y="289.6" fill="#B2B2B2" width="407.5" height="15"/>
		<rect y="348" fill="#B2B2B2" width="407.5" height="15"/>
		<rect y="377" fill="#C6C6C6" width="407.5" height="15"/>
		<rect y="318.6" fill="#C6C6C6" width="407.5" height="15"/>
		<rect y="406.3" fill="#B2B2B2" width="407.5" height="15"/>
	</g>
</g>
<g id="Calque_6">
</g>
</svg>
